<?xml version="1.0" standalone="no"?>
<!DOCTYPE svg PUBLIC "-//W3C//DTD SVG 20010904//EN"
 "http://www.w3.org/TR/2001/REC-SVG-20010904/DTD/svg10.dtd">
<svg version="1.0" xmlns="http://www.w3.org/2000/svg"
 width="1851.000000pt" height="691.000000pt" viewBox="0 0 1851.000000 691.000000"
 preserveAspectRatio="xMidYMid meet">

<g transform="translate(0.000000,691.000000) scale(0.100000,-0.100000)"
fill="#000000" stroke="none">
<path d="M2150 5509 c-373 -43 -751 -201 -1051 -440 -104 -83 -273 -257 -354
-364 -360 -479 -486 -1105 -340 -1685 132 -527 486 -987 969 -1261 500 -284
1125 -345 1674 -163 184 61 454 203 591 313 l25 19 -180 240 c-145 195 -183
240 -198 235 -10 -3 -51 -27 -90 -54 -160 -108 -357 -186 -561 -221 -101 -17
-146 -19 -285 -15 -180 6 -260 20 -417 72 -204 68 -378 173 -536 325 -122 117
-209 231 -280 369 -48 92 -117 265 -117 292 0 5 443 9 1115 9 l1115 0 0 320 0
320 -1115 0 c-818 0 -1115 3 -1115 11 0 26 72 223 106 291 205 409 575 685
1039 775 134 26 387 23 521 -5 210 -45 384 -119 556 -238 50 -35 93 -62 94
-61 31 38 344 490 344 497 0 13 -109 89 -224 155 -245 140 -492 224 -769 260
-127 16 -391 18 -517 4z"/>
<path d="M5350 5505 c-422 -58 -797 -241 -1108 -540 -330 -317 -537 -727 -597
-1180 -61 -469 49 -964 302 -1350 330 -503 857 -828 1453 -896 141 -16 433 -6
567 20 134 25 333 81 333 93 0 5 -57 98 -127 206 -69 108 -141 220 -159 248
l-33 51 -73 -15 c-112 -23 -438 -22 -548 1 -575 123 -1001 539 -1125 1100 -22
98 -31 353 -16 458 87 609 529 1076 1141 1206 132 28 402 25 539 -5 295 -66
523 -192 726 -403 192 -199 321 -453 371 -729 24 -129 24 -374 1 -492 -74
-375 -299 -721 -582 -896 -55 -34 -113 -72 -129 -85 l-28 -23 162 -269 c180
-298 427 -692 440 -700 7 -4 438 280 469 310 11 11 -12 53 -142 262 l-155 248
30 35 c156 187 223 282 303 432 306 579 311 1247 14 1837 -161 319 -381 568
-673 762 -258 172 -530 274 -834 314 -136 18 -390 18 -522 0z"/>
<path d="M16520 5489 c-573 -63 -1019 -356 -1145 -752 -37 -114 -50 -246 -36
-361 47 -395 336 -654 996 -889 72 -26 213 -76 315 -112 442 -158 659 -309
741 -520 34 -87 34 -260 1 -360 -40 -120 -80 -184 -177 -281 -80 -81 -103 -98
-195 -142 -119 -58 -185 -77 -317 -92 -210 -23 -452 37 -629 157 -85 58 -205
187 -242 261 -40 81 -66 199 -59 264 l6 49 -27 -5 c-15 -3 -151 -28 -302 -56
-151 -28 -286 -53 -299 -56 -23 -5 -23 -8 -17 -65 13 -127 97 -327 196 -467
195 -276 524 -483 897 -562 127 -27 414 -38 563 -21 635 73 1115 438 1241 945
43 172 34 442 -20 599 -92 267 -299 481 -623 643 -152 76 -219 102 -598 229
-364 122 -488 175 -605 256 -142 98 -209 200 -209 319 1 203 166 377 444 464
238 75 526 52 727 -59 71 -39 235 -195 248 -234 3 -12 10 -21 14 -21 5 0 124
56 265 125 l257 125 -43 62 c-196 280 -523 479 -893 543 -111 20 -361 27 -475
14z"/>
<path d="M7883 4048 l3 -1323 26 -108 c106 -424 358 -738 753 -935 443 -221
1089 -253 1585 -80 367 129 657 376 814 693 84 169 123 306 146 510 6 55 10
566 10 1328 l0 1237 -325 0 -325 0 0 -1139 c0 -698 -4 -1188 -10 -1267 -26
-323 -107 -529 -275 -700 -111 -113 -252 -185 -445 -227 -128 -28 -431 -30
-563 -4 -209 42 -343 110 -472 241 -129 131 -195 265 -248 506 -20 93 -21 120
-24 1343 l-4 1247 -325 0 -325 0 4 -1322z"/>
<path d="M11600 4168 c0 -1202 4 -1365 36 -1523 64 -318 243 -610 488 -799
106 -81 144 -105 262 -164 169 -85 333 -135 554 -169 160 -24 500 -24 660 0
395 61 698 204 935 442 198 197 321 436 377 730 21 108 21 137 25 1398 l4
1287 -320 0 -321 0 0 -1117 c0 -646 -4 -1177 -10 -1257 -42 -576 -283 -879
-770 -967 -99 -18 -401 -18 -500 0 -245 44 -418 140 -542 301 -100 129 -149
241 -191 430 -20 93 -21 120 -24 1353 l-4 1257 -329 0 -330 0 0 -1202z"/>
</g>
</svg>
